<svg width="274" height="161" viewBox="0 0 274 161" fill="none" xmlns="http://www.w3.org/2000/svg">
<g clip-path="url(#clip0)">
<path d="M96.3183 51.2785H51.5925V84.9517H96.3183V51.2785Z" fill="#F8D7BC"/>
<path d="M47.0764 48.5979V51.2785H96.1572V84.9436H47.0764V87.4552H235.865V48.5979H47.0764Z" fill="#4E53BA"/>
<path d="M8.21097 90.973H144.57C159.14 90.973 171.038 102.871 171.038 117.441V119.285C171.038 133.855 159.309 145.753 144.739 145.753H8.21097V90.973Z" fill="#F8ECE2"/>
<path d="M246.089 87.4552H1.6744C0.66815 87.4552 0 88.1233 0 89.1296C0 90.1358 0.66815 90.804 1.6744 90.804H143.733C158.81 90.804 171.038 103.032 171.038 118.11C171.038 133.187 158.979 145.415 143.902 145.584C143.902 145.584 143.902 145.584 143.733 145.584H1.6744C0.66815 145.584 0 146.252 0 147.259C0 148.265 0.66815 148.933 1.6744 148.933H246.089C261.166 148.933 273.394 136.705 273.394 121.627V114.93C273.394 99.8522 261.166 87.6243 246.089 87.4552C246.089 87.6243 246.089 87.6243 246.089 87.4552Z" fill="#FF5856"/>
<path d="M148.925 102.702H8.21097V100.858H148.925C149.424 100.858 149.931 101.358 149.931 101.865C149.931 102.372 149.424 102.702 148.925 102.702Z" fill="#EBD0BE"/>
<path d="M83.9293 76.9017H51.5925V75.0582H84.0903C84.5894 75.0582 85.0966 75.5573 85.0966 76.0645C84.9356 76.5716 84.4284 76.9017 83.9293 76.9017Z" fill="#E0C1A6"/>
<path d="M76.2255 66.3482H51.5925V64.5047H76.3865C76.8856 64.5047 77.3927 64.8428 77.3927 65.5109C77.2237 65.849 76.8936 66.3482 76.2255 66.3482Z" fill="#E0C1A6"/>
<path d="M159.14 123.978H8.21097V122.135H159.148C159.648 122.135 160.155 122.634 160.155 123.141C160.147 123.64 159.648 123.978 159.14 123.978Z" fill="#EBD0BE"/>
<path d="M140.553 135.876H8.21097V133.863H140.553C141.052 133.863 141.559 134.202 141.559 134.701C141.551 135.369 141.052 135.707 140.553 135.876Z" fill="#EBD0BE"/>
<path d="M154.624 113.593H8.21097V111.75H154.624C155.123 111.75 155.631 112.249 155.631 112.756C155.462 113.086 155.123 113.593 154.624 113.593Z" fill="#EBD0BE"/>
<path d="M135.337 45.563H80.5564V25.2931H135.337C138.516 25.2931 141.036 27.8047 141.036 30.9925V40.0407C141.036 43.0514 138.524 45.563 135.337 45.563Z" fill="#F8D0B3"/>
<path d="M242.08 22.2824H75.8954C75.0582 22.2824 74.39 22.9505 74.39 23.7877C74.39 24.6249 75.0582 25.2931 75.8954 25.2931H135.369C138.549 25.2931 141.068 27.8047 141.068 30.9925V39.8716C141.068 43.0514 138.557 45.571 135.369 45.571H76.2335C75.3963 45.7401 74.7281 46.4082 74.8972 47.2454C74.8972 47.9136 75.5653 48.5817 76.2335 48.5817H242.08C245.259 48.5817 247.779 46.0701 247.779 42.8823V27.8047C247.771 25.124 245.09 22.2824 242.08 22.2824Z" fill="#FF7A82"/>
<path d="M71.7094 1.33632H161C166.192 1.33632 170.547 5.52232 170.547 10.8836V11.5518C170.547 16.744 166.361 21.0991 161 21.0991H71.7094V1.33632Z" fill="#F8E7D8"/>
<path d="M224.321 0H67.8535C67.5154 0 67.1853 0.3381 67.1853 0.66815C67.1853 1.00625 67.5234 1.3363 67.8535 1.3363H160.662C166.023 1.3363 170.547 5.69135 170.547 11.2217C170.547 16.583 166.192 21.1071 160.662 21.1071H67.8535C67.5154 21.1071 67.1853 21.4452 67.1853 21.7752C67.1853 22.1133 67.5234 22.4434 67.8535 22.4434H224.313C229.675 22.4434 234.199 18.0883 234.199 12.558V9.87735C234.207 4.35505 229.683 0 224.321 0Z" fill="#2B31BA"/>
<path d="M150.777 6.86661H71.7094V6.02941H150.777C151.115 6.02941 151.276 6.19846 151.276 6.52851C151.284 6.69756 151.115 6.86661 150.777 6.86661Z" fill="#DEBCA7"/>
<path d="M143.242 16.5829H71.7094V15.7457H143.242C143.58 15.7457 143.741 15.9148 143.741 16.2448C143.741 16.4139 143.572 16.5829 143.242 16.5829Z" fill="#DEBCA7"/>
<path d="M159.656 11.7288H71.7094V10.7226H159.656C159.825 10.7226 160.155 10.8916 160.155 11.2217C160.163 11.3907 159.994 11.7288 159.656 11.7288Z" fill="#DEBCA7"/>
<path d="M124.469 122.135H102.525C102.525 122.135 99.007 123.31 95.9882 129.001C92.3013 136.037 93.4766 142.735 91.1341 147.935C89.6287 151.453 87.1171 154.302 83.9293 156.307C86.4409 156.645 89.1216 156.806 91.8022 156.476C93.9838 155.977 95.9882 155.14 97.6626 153.795C98.1617 154.971 98.3308 156.138 98.4998 157.313C98.6689 158.488 98.6689 159.825 98.4998 161C98.4998 161 106.542 159.157 109.722 154.463C114.246 148.096 110.39 140.223 116.419 130.338C118.601 127.327 121.281 124.477 124.469 122.135Z" fill="#BFA990"/>
</g>
<defs>
<clipPath id="clip0">
<rect width="273.394" height="161" fill="white"/>
</clipPath>
</defs>
</svg>
