<svg width="417" height="262" viewBox="0 0 417 262" fill="none" xmlns="http://www.w3.org/2000/svg">
<g opacity="0.5">
<path opacity="0.5" d="M339.399 175.492C334.211 179.336 327.528 183.384 327.501 190.297C327.629 192.649 328.205 194.954 329.199 197.089C335.311 212.465 342.863 227.298 346.68 243.57C347.709 247.948 348.394 252.398 348.731 256.882H13.5805C5.22685 248.732 -2.05372 237.648 0.893828 226.143C4.79219 210.971 24.121 205.456 27.2859 190.08C30.3964 174.962 15.8217 161.813 15.4278 146.315C15.1697 136.345 21.1056 127.109 28.7664 121.865C36.4273 116.622 45.5824 114.87 54.5744 114.123C66.7595 113.13 79.0238 113.862 91.0044 116.296C104.588 119.013 118.171 123.971 131.835 122.151C137.38 121.57 142.639 119.4 146.981 115.902C152.699 111.04 155.986 103.46 158.309 95.8944C164.72 75.0715 165.535 51.8036 176.144 33.2082C189.863 9.15246 217.844 -1.53748 243.367 1.47798C268.889 4.49344 292.171 19.1361 312.518 36.4546C332.404 53.3928 350.891 74.2972 358.592 100.771C366.294 127.244 360.25 160.061 339.399 175.492Z" fill="#FCFAF1"/>
</g>
<path d="M355.197 122.68C345.688 130.11 333.219 135.788 321.605 139.958C318.264 127.326 315.33 114.612 313.157 101.762C323.275 99.8033 332.902 95.8509 341.478 90.1352C355.672 80.464 374.553 44.7539 379.28 35.5309L379.999 34.0775C379.999 34.0775 383.667 24.3792 384.156 22.9122C385.283 18.711 386.19 14.4536 386.872 10.1576C386.872 10.1576 389.589 9.27471 390.01 15.4143C390.431 21.5539 391.518 19.7337 391.518 19.7337C391.518 19.7337 402.629 2.95855 405.821 3.66487C407.016 3.93653 405.821 7.73982 403.906 9.96745C402.474 11.7421 401.184 13.6269 400.048 15.6045C400.048 15.6045 410.915 3.58337 413.835 5.0096C413.835 5.0096 415.288 5.93326 411.798 9.50563C408.909 12.4778 406.24 15.6556 403.811 19.0138C403.811 19.0138 414.827 9.42413 416.253 10.1984C418.63 11.4752 407.465 21.2415 405.807 24.6237C405.807 24.6237 414.052 16.8405 414.528 19.0274C415.003 21.2143 405.549 29.3234 401.271 40.3122C400.958 41.3853 400.551 42.6213 400.075 44.0068C400.075 44.0068 388.801 96.4378 355.197 122.68Z" fill="#FEBF9F"/>
<path d="M390.934 20.5623C392.297 21.6373 393.516 22.8837 394.561 24.2705C395.097 24.9701 395.578 25.7104 396 26.4845C396.485 27.319 396.794 28.2433 396.91 29.2011L395.552 28.685C396.182 28.1326 396.916 27.7123 397.712 27.4489C398.483 27.1785 399.302 27.0721 400.116 27.1365C400.913 27.19 401.689 27.4073 402.398 27.7749C403.078 28.1205 403.693 28.5799 404.218 29.1332C403.55 28.8563 402.859 28.6382 402.154 28.4812C401.489 28.3367 400.807 28.2955 400.13 28.359C399.483 28.4215 398.85 28.5866 398.255 28.848C397.663 29.1081 397.113 29.4561 396.625 29.8803L395.484 30.9262L395.267 29.3234C395.137 28.5843 394.894 27.8696 394.547 27.2044C394.207 26.4709 393.827 25.7374 393.406 25.0175C392.632 23.5505 391.762 22.0972 390.934 20.5623Z" fill="black"/>
<path d="M258.851 78.1819C266.316 78.1819 272.367 71.4255 272.367 63.091C272.367 54.7566 266.316 48.0001 258.851 48.0001C251.387 48.0001 245.336 54.7566 245.336 63.091C245.336 71.4255 251.387 78.1819 258.851 78.1819Z" fill="black"/>
<path d="M248.746 68.9997C248.746 68.9997 268.156 53.0395 255.809 18.0222C247.768 -4.77033 200.43 60.0756 248.746 68.9997Z" fill="black"/>
<path d="M200.362 29.5543C202.522 15.876 216.159 -7.01156 240.419 7.07417C248.039 11.5023 251.285 19.5842 252.834 27.9786C253.907 33.833 251.842 91.3576 251.842 91.3576C249.791 114.449 215.168 119.882 213.986 91.8058L215.344 72.5857C197.809 66.9623 197.931 44.9304 200.362 29.5543Z" fill="#FEBF9F"/>
<path d="M215.358 72.5856C215.358 72.5856 225.274 75.8999 243.964 64.2863C236.499 74.3041 226.219 81.8703 214.434 86.0194L215.358 72.5856Z" fill="#B06D6A"/>
<path d="M236.982 58.5679C242.556 58.5679 247.075 54.0494 247.075 48.4756C247.075 42.9018 242.556 38.3833 236.982 38.3833C231.409 38.3833 226.89 42.9018 226.89 48.4756C226.89 54.0494 231.409 58.5679 236.982 58.5679Z" fill="#FCB091"/>
<path d="M210.713 41.5346C210.713 38.858 209.649 36.291 207.757 34.3983C205.864 32.5057 203.297 31.4424 200.62 31.4424H200.077C199.033 38.1188 198.932 44.9089 199.778 51.6133H200.62C203.295 51.6133 205.86 50.5519 207.752 48.6622C209.644 46.7725 210.709 44.2089 210.713 41.5346Z" fill="#FCB091"/>
<path d="M258.413 45.3771C262.408 44.4069 264.86 40.382 263.89 36.3871C262.92 32.3923 258.895 29.9403 254.9 30.9104C250.905 31.8806 248.453 35.9055 249.423 39.9004C250.394 43.8952 254.418 46.3472 258.413 45.3771Z" fill="#FEBF9F"/>
<path d="M253.214 40.2442C253.298 39.4724 253.594 38.7388 254.07 38.1253C254.561 37.4667 255.23 36.9624 255.999 36.6719C256.415 36.5199 256.859 36.457 257.301 36.4875C257.743 36.5179 258.174 36.6409 258.566 36.8485C259.285 37.2232 259.837 37.853 260.115 38.6143C259.455 38.3574 258.773 38.1618 258.077 38.0302C257.543 37.9403 256.995 37.9918 256.488 38.1796C255.323 38.7427 254.225 39.4353 253.214 40.2442Z" fill="black"/>
<path d="M214.217 47.9865C215.154 48.394 215.915 48.8694 216.703 49.1819C217.379 49.5054 218.114 49.6858 218.863 49.7116C219.596 49.6863 220.314 49.5008 220.968 49.1683C221.701 48.8151 222.449 48.3261 223.318 47.81C223.172 48.8391 222.696 49.7928 221.96 50.5266C221.156 51.3418 220.062 51.8057 218.917 51.817C217.792 51.7992 216.715 51.3578 215.901 50.5809C215.101 49.8976 214.515 48.9963 214.217 47.9865Z" fill="black"/>
<path d="M216.784 26.2265C216.967 27.1048 216.93 28.0148 216.676 28.8752C216.44 29.732 216.093 30.5541 215.643 31.3202C214.766 32.8561 213.636 34.2336 212.302 35.3951L212.18 34.3356C213.648 35.3335 215.046 36.4319 216.363 37.6227C214.691 37.0297 213.061 36.3217 211.487 35.5038L210.781 35.1506L211.365 34.4443C211.881 33.8331 212.383 33.1675 212.9 32.5291C213.416 31.8907 213.905 31.2387 214.38 30.5731C215.395 29.2534 216.206 27.788 216.784 26.2265Z" fill="black"/>
<path d="M224.948 28.5221C224.892 29.811 224.955 31.1024 225.138 32.3797C225.328 33.6022 225.817 34.7024 226.496 34.8654C227.175 35.0284 228.126 34.5258 228.982 33.6429C229.865 32.7152 230.669 31.7157 231.386 30.6546C231.482 30.536 231.616 30.4546 231.766 30.4247C231.915 30.3948 232.07 30.4182 232.204 30.4908C232.338 30.5635 232.443 30.6808 232.499 30.8224C232.556 30.964 232.561 31.1209 232.514 31.2658C232.008 32.6148 231.278 33.8685 230.354 34.974C229.853 35.5803 229.251 36.0951 228.574 36.4954C228.168 36.7337 227.717 36.8846 227.249 36.9384C226.781 36.9922 226.307 36.9477 225.858 36.8078C225.416 36.6397 225.014 36.3831 224.675 36.0538C224.336 35.7244 224.069 35.3292 223.888 34.8925C223.587 34.1676 223.417 33.395 223.386 32.6106C223.318 31.1789 223.492 29.7461 223.902 28.3726C223.929 28.2359 224.009 28.1149 224.123 28.0349C224.237 27.955 224.378 27.922 224.516 27.943C224.654 27.9639 224.779 28.0372 224.864 28.1475C224.949 28.2578 224.989 28.3968 224.975 28.5356L224.948 28.5221Z" fill="black"/>
<path d="M204.301 26.1313C204.23 27.3482 204.23 28.5683 204.301 29.7852C204.342 30.3343 204.447 30.8768 204.614 31.4016C204.777 31.8906 205.008 32.1079 205.13 32.1079C205.252 32.1079 205.551 32.1079 205.931 31.7412C206.351 31.3814 206.729 30.9759 207.059 30.5323C207.765 29.6086 208.417 28.5491 209.096 27.5168C209.183 27.3877 209.313 27.2937 209.462 27.2519C209.612 27.21 209.772 27.2231 209.913 27.2886C210.054 27.3542 210.167 27.468 210.231 27.6094C210.296 27.7509 210.307 27.9107 210.264 28.0601C209.877 29.336 209.315 30.5519 208.594 31.6732C208.217 32.2794 207.76 32.8322 207.235 33.3168C206.916 33.5992 206.554 33.8285 206.162 33.996C205.665 34.2137 205.109 34.2528 204.586 34.1068C204.064 33.9607 203.608 33.6384 203.296 33.1946C203.044 32.8422 202.86 32.4461 202.753 32.0264C202.573 31.3305 202.495 30.6121 202.522 29.8938C202.561 28.5653 202.785 27.2486 203.188 25.9819C203.211 25.8396 203.29 25.7124 203.407 25.6284C203.524 25.5443 203.67 25.5102 203.812 25.5337C203.955 25.5571 204.082 25.6361 204.166 25.7532C204.25 25.8704 204.284 26.0162 204.261 26.1585L204.301 26.1313Z" fill="black"/>
<path d="M233.728 23.0966C233.878 22.1406 232.618 21.1483 230.914 20.8802C229.209 20.612 227.706 21.1697 227.555 22.1256C227.405 23.0816 228.665 24.0739 230.369 24.3421C232.074 24.6102 233.577 24.0526 233.728 23.0966Z" fill="black"/>
<path d="M210.034 19.5027C210.373 20.4128 209.327 21.6217 207.697 22.2193C206.067 22.817 204.492 22.491 204.152 21.5809C203.812 20.6709 204.858 19.462 206.488 18.8643C208.118 18.2666 209.708 18.5926 210.034 19.5027Z" fill="black"/>
<path d="M205.592 15.3192C205.592 15.3192 220.37 18.5112 240.419 7.07418C240.419 7.07418 233.193 45.9763 252.644 31.9993C253.436 31.414 254.343 31.0036 255.305 30.7952C256.268 30.5868 257.263 30.5851 258.227 30.7904L258.987 31.0349C258.987 31.0349 258.457 8.32383 242.198 2.71399C225.939 -2.89585 214.462 -0.328634 205.592 15.3192Z" fill="black"/>
<path d="M106.679 127.951L114.069 104.982L131.197 110.822L130.423 130.667L106.679 127.951Z" fill="#FEBF9F"/>
<path d="M374.58 41.6975C374.58 41.6975 353.879 83.5744 336.126 91.8601C318.373 100.146 272.543 87.6222 260.06 88.1655L251.992 87.9889C249.017 92.7702 238.246 95.9215 230.449 95.2016C219.324 94.1692 215.508 89.4423 214.448 85.6119L200.661 84.5795C193.87 83.9955 182.623 85.2859 172.137 96.2339C168.13 100.39 149.412 121.974 127.679 150.213L133.112 130.912L103.46 127.299C79.8934 172.204 90.3117 207.1 104.329 207.1C128.507 207.1 166.364 171.091 187.187 149.208L192.416 205.633L272.557 208.349L265.534 140.814C276.998 142.294 335.257 148.964 355.563 136.454C378.139 122.49 398.405 62.1266 398.405 62.1266L374.58 41.6975Z" fill="#9DB15F"/>
<path d="M121.485 170.887C120.969 170.751 122.843 161.841 126.076 151.123C129.309 140.406 132.786 131.985 133.289 132.107C133.791 132.229 131.183 140.963 127.937 151.64C124.691 162.316 122.015 171.023 121.485 170.887Z" fill="black"/>
<path d="M127.679 86.5627C129.037 85.0957 133.18 80.5997 133.194 78.603C133.194 75.0578 127.19 81.4283 124.568 84.3622C125.648 85.0329 126.687 85.7677 127.679 86.5627Z" fill="#F69B77"/>
<path d="M102.441 57.4269C102.637 56.9955 102.937 56.6192 103.313 56.3312C103.689 56.0432 104.13 55.8524 104.598 55.7759C105.065 55.6993 105.545 55.7392 105.993 55.8922C106.441 56.0451 106.845 56.3063 107.168 56.6527C113.634 63.5393 128.154 80.8714 135.449 92.6073C145.785 109.247 152.645 120.167 152.645 120.167L182.922 146.315C182.922 146.315 170.126 153.324 158.757 143.164C150.159 135.476 146.166 121.865 146.166 121.865C146.166 121.865 119.814 74.5417 103.229 60.8227C102.746 60.4199 102.409 59.8684 102.271 59.2542C102.134 58.64 102.203 57.9975 102.469 57.4269H102.441Z" fill="#5F462E"/>
<path d="M114.422 116.962C112.561 109.505 112.425 97.4022 112.344 92.8926C112.308 91.4911 112.686 90.1101 113.43 88.9218C114.174 87.7335 115.251 86.7903 116.527 86.2097C123.427 82.2298 137.432 79.4181 137.961 81.3197C138.396 82.9226 126.293 86.8481 126.293 86.8481C126.293 86.8481 141.344 84.376 138.382 87.7989C136.807 89.6326 128.345 90.339 128.345 90.339C128.345 90.339 137.527 91.317 136.834 92.6617C135.584 95.0523 128.032 94.7263 128.032 94.7263C128.032 94.7263 131.645 97.7961 132.705 105.498C133.479 111.121 121.947 122.246 121.947 122.246L114.422 116.962Z" fill="#FEBF9F"/>
<path d="M120.792 96.3291C120.697 95.9896 122.341 95.2968 124.46 95.1338C125.506 95.0387 126.456 95.1338 127.027 95.0252C127.597 94.9165 127.842 94.7807 128.032 94.8486C128.222 94.9165 128.141 95.0251 128.032 95.2561C127.863 95.5559 127.594 95.7867 127.271 95.9081C126.397 96.2171 125.481 96.3911 124.555 96.4242C122.544 96.5872 120.887 96.6959 120.792 96.3291Z" fill="black"/>
<path d="M329.226 111.678C328.655 111.678 328.302 107.413 326.115 102.781C323.928 98.1491 320.954 95.0793 321.347 94.6311C321.51 94.4409 322.516 94.9571 323.833 96.1932C327.236 99.5283 329.303 103.992 329.647 108.744C329.728 110.564 329.484 111.678 329.226 111.678Z" fill="black"/>
<path d="M338.734 102.645C338.326 103.026 335.583 100.621 331.779 98.4073C327.976 96.1933 324.553 94.93 324.689 94.3324C324.825 93.7347 328.682 94.2509 332.757 96.6687C336.832 99.0865 339.141 102.319 338.734 102.645Z" fill="black"/>
<path d="M275.151 210.047C275.287 209.925 276.306 210.889 278.262 212.492C281.013 214.759 284.016 216.701 287.213 218.278C289.196 219.454 291.515 219.932 293.801 219.637C294.92 219.373 295.893 218.687 296.517 217.722C296.821 217.298 296.983 216.789 296.983 216.268C296.983 215.747 296.821 215.239 296.517 214.815C295.638 213.84 294.465 213.177 293.176 212.927C291.624 212.567 290.049 212.317 288.463 212.18C285.041 211.829 281.594 211.801 278.167 212.098V209.382C280.72 209.531 283.41 209.572 286.153 209.49C288.177 209.49 290.228 209.3 292.144 209.11C294.053 208.949 295.952 208.69 297.835 208.336C299.489 208.057 301.042 207.355 302.345 206.298C302.873 205.818 303.287 205.227 303.557 204.566C303.827 203.906 303.947 203.194 303.907 202.481C303.889 201.861 303.66 201.265 303.258 200.793C302.855 200.321 302.302 200.001 301.693 199.887C300.969 199.696 300.226 199.586 299.479 199.561C298.691 199.561 297.93 199.466 297.156 199.561C294.315 199.6 291.496 200.058 288.789 200.919C284.817 202.157 281.125 204.159 277.922 206.814C275.64 208.716 274.54 209.979 274.363 209.843C274.187 209.708 275.042 208.241 277.175 206.013C280.263 202.895 284.015 200.513 288.15 199.045C291.015 197.991 294.025 197.386 297.074 197.252C297.903 197.252 298.745 197.252 299.587 197.252C300.503 197.262 301.414 197.376 302.304 197.591C303.381 197.839 304.359 198.402 305.116 199.208C305.892 200.077 306.368 201.172 306.474 202.332C306.572 203.448 306.414 204.571 306.011 205.616C305.609 206.662 304.972 207.601 304.151 208.363C302.517 209.755 300.544 210.692 298.433 211.079C296.444 211.478 294.435 211.768 292.415 211.949C290.391 212.152 288.34 212.288 286.235 212.356C283.41 212.438 280.639 212.356 278.004 212.22V209.504C281.624 209.212 285.264 209.28 288.87 209.708C290.598 209.886 292.31 210.195 293.991 210.631C295.835 211.062 297.477 212.106 298.65 213.592C299.231 214.434 299.535 215.436 299.519 216.458C299.487 217.431 299.176 218.374 298.623 219.175C297.653 220.609 296.162 221.609 294.466 221.96C292.992 222.221 291.475 222.114 290.052 221.647C288.833 221.26 287.659 220.745 286.547 220.112C283.305 218.329 280.344 216.077 277.759 213.429C275.735 211.351 275.029 210.156 275.151 210.047Z" fill="black"/>
<path d="M192.362 201.87L186.277 252.82H305.55L272.502 204.6L192.362 201.87Z" fill="#EF6B32"/>
<path d="M192.362 201.87L272.733 204.356L275.925 210.264L244.182 210.753L259.938 252.848L186.277 252.82L192.362 201.87Z" fill="#FCFAF1"/>
<path d="M355.645 252.943H8.0249V261.568H355.645V252.943Z" fill="#EFBA32"/>
<path d="M257.398 244.154H114.951V253.201H257.398V244.154Z" fill="black"/>
<path d="M194.236 68.2798C194.236 68.2798 194.073 68.728 193.612 69.4615L192.742 70.8198C192.416 71.3631 192.077 72.0151 191.683 72.7215C188.971 77.7523 187.387 83.3128 187.04 89.0172C186.693 94.7216 187.591 100.433 189.672 105.756C191.163 109.464 193.261 112.898 195.88 115.916C198.597 119.081 201.884 122.314 203.921 126.592C205.978 130.715 206.843 135.33 206.42 139.917C206.195 142.148 205.466 144.299 204.288 146.206C203.094 148.011 201.457 149.48 199.534 150.471C197.741 151.449 195.934 152.129 194.264 152.876C189.728 154.829 185.586 157.591 182.039 161.026C180.147 162.745 178.741 164.933 177.964 167.369C177.712 168.275 177.643 169.222 177.762 170.155C177.881 171.088 178.185 171.988 178.656 172.802C179.241 173.868 180.15 174.719 181.251 175.233C182.025 175.559 182.487 175.6 182.473 175.695C182.46 175.79 181.998 175.845 181.115 175.614C179.827 175.205 178.725 174.353 178.005 173.21C177.406 172.32 176.999 171.317 176.807 170.263C176.615 169.209 176.644 168.126 176.891 167.084C177.625 164.397 179.076 161.96 181.088 160.034C183.372 157.663 185.935 155.579 188.722 153.826C190.274 152.85 191.889 151.979 193.557 151.218C195.269 150.431 197.021 149.738 198.651 148.814C200.304 147.953 201.707 146.68 202.726 145.12C203.734 143.445 204.351 141.565 204.532 139.618C204.883 135.405 204.07 131.177 202.183 127.394C200.322 123.468 197.211 120.385 194.44 117.098C191.706 113.905 189.534 110.272 188.015 106.353C185.483 99.7349 184.765 92.5599 185.937 85.5711C186.731 80.8854 188.433 76.4002 190.949 72.3683C191.411 71.6756 191.805 71.01 192.185 70.521L193.231 69.2713C193.802 68.565 194.128 68.239 194.236 68.2798Z" fill="black"/>
<path d="M128.426 196.559C128.63 196.342 130.056 199.561 132.121 205.049L132.582 206.271L131.224 206.054C126.367 205.171 121.63 203.722 117.111 201.734C115.385 201.144 113.907 199.991 112.914 198.461C112.419 197.608 112.241 196.607 112.411 195.636C112.602 194.68 113.157 193.837 113.96 193.286C114.684 192.803 115.535 192.548 116.405 192.552H117.003H117.492L118.456 192.634C119.688 192.745 120.899 193.024 122.056 193.462C123.682 194.086 125.274 194.798 126.823 195.595C127.978 196.165 128.535 196.546 128.426 196.627C127.786 196.639 127.15 196.528 126.552 196.301L121.675 194.943C120.606 194.631 119.501 194.453 118.388 194.413H117.424H116.514C115.988 194.43 115.478 194.6 115.047 194.902C114.647 195.219 114.382 195.674 114.304 196.178C114.226 196.681 114.341 197.196 114.626 197.619C115.438 198.758 116.595 199.606 117.926 200.036C122.315 201.955 126.859 203.495 131.509 204.641L130.64 205.646C129.037 200.349 128.222 196.79 128.426 196.559Z" fill="black"/>
<path d="M222.123 196.559C222.326 196.777 221.457 200.349 219.895 205.551L219.026 204.546C223.676 203.405 228.22 201.869 232.609 199.955C232.966 199.81 233.315 199.647 233.655 199.466C233.978 199.313 234.288 199.131 234.578 198.923C235.127 198.577 235.591 198.113 235.937 197.564C236.221 197.144 236.339 196.632 236.266 196.13C236.193 195.627 235.935 195.17 235.543 194.848C234.559 194.295 233.397 194.154 232.31 194.454C231.101 194.617 229.974 194.875 228.928 195.106C224.853 196.111 222.231 196.912 222.136 196.641C222.041 196.369 224.418 195.147 228.561 193.775C229.701 193.4 230.862 193.091 232.038 192.851C232.734 192.698 233.445 192.62 234.157 192.62C235.025 192.631 235.87 192.895 236.589 193.381C237.384 193.94 237.93 194.788 238.11 195.744C238.273 196.719 238.085 197.72 237.58 198.569C236.585 200.095 235.107 201.242 233.383 201.829C228.873 203.815 224.145 205.265 219.297 206.149L217.939 206.366L218.401 205.144C220.493 199.575 221.905 196.342 222.123 196.559Z" fill="black"/>
<path d="M128.711 187.662H223.345V227.665C223.345 232.07 221.595 236.296 218.479 239.411C215.364 242.527 211.139 244.277 206.733 244.277H145.337C140.931 244.277 136.706 242.527 133.59 239.411C130.475 236.296 128.725 232.07 128.725 227.665V187.662H128.711Z" fill="#EFBA32"/>
<path d="M223.766 186.847H127.964V188.83H223.766V186.847Z" fill="#D7F5F6"/>
<path d="M84.6203 164.829H45.4465V240.596H84.6203V164.829Z" fill="#ABE2D9"/>
<path opacity="0.6" d="M81.9852 188.803H48.0817V238.694H81.9852V188.803Z" fill="#C4F6EC"/>
<path opacity="0.6" d="M50.1191 214.19L79.6217 175.628" stroke="#C4F6EC" stroke-width="1.76581" stroke-miterlimit="10" stroke-linecap="round"/>
<path opacity="0.6" d="M50.2278 206.135L76.0358 171.498" stroke="#C4F6EC" stroke-width="1.76581" stroke-miterlimit="10" stroke-linecap="round"/>
<path d="M42.9064 183.03C39.9158 176.94 37.5317 170.571 35.7888 164.014C34.6342 158.947 29.364 136.44 27.4895 139.184C25.615 141.928 29.5134 154.818 31.3471 160.686C32.8277 165.413 37.8127 179.539 37.8127 179.539C37.8127 179.539 23.2787 151.015 18.8642 150.404C14.4497 149.792 21.9204 160.713 23.4146 162.941C28.4132 170.357 31.741 175.166 36.142 180.816C36.142 180.816 5.32181 150.838 2.1026 155.28C-1.11661 159.722 13.8249 165.956 20.793 171.104C26.1312 175.057 37.6769 184.687 37.6769 184.687C37.6769 184.687 36.0333 181.971 30.0567 178.004C21.0783 172.123 5.43047 164.992 4.50682 168.021C3.25717 172.096 12.0047 173.522 19.4483 176.402C36.1148 182.813 38.0436 188.626 38.0436 188.626L42.9064 183.03Z" fill="#185442"/>
<path d="M49.1547 183.37C49.1547 183.37 44.9032 177.353 37.8671 182.324C30.8311 187.295 35.2999 196.192 37.4596 198.624C39.6194 201.055 59.2742 221.389 61.9093 226.347C64.5444 231.305 73.3463 244.63 76.2259 243.584C79.1056 242.538 76.9051 239.102 75.737 230.476C74.4392 221.567 70.8596 213.144 65.3458 206.027C60.1435 199.588 49.1547 183.37 49.1547 183.37Z" fill="#EF6B32"/>
<path d="M51.9665 188.423C48.1496 189.509 45.6367 193 41.6161 193.612C40.3936 193.788 40.9098 195.649 42.1323 195.472C46.1257 194.875 49.1412 191.764 52.6185 189.944C52.8004 189.847 52.9394 189.685 53.0084 189.491C53.0774 189.296 53.0714 189.083 52.9916 188.893C52.9118 188.703 52.7639 188.549 52.5768 188.462C52.3897 188.375 52.1769 188.361 51.9801 188.423H51.9665Z" fill="#D55D1E"/>
<path d="M58.269 197.062C56.7715 197.558 55.3636 198.292 54.099 199.235L49.7931 201.952C48.7336 202.604 49.7116 204.288 50.7711 203.622L55.0634 200.906C56.4705 200.185 57.7542 199.245 58.8667 198.121C58.9658 198.024 59.0296 197.896 59.048 197.758C59.0663 197.62 59.0382 197.48 58.9681 197.36C58.8979 197.24 58.7898 197.147 58.6607 197.096C58.5316 197.044 58.389 197.037 58.2554 197.075L58.269 197.062Z" fill="#D55D1E"/>
<path d="M65.6038 207.358C64.2455 208.159 62.8872 209.124 61.5289 210.074C60.2285 210.901 58.9809 211.809 57.7935 212.791C56.9921 213.497 58.0244 214.747 58.9073 214.231C60.2656 213.429 61.624 212.383 62.9008 211.514C64.177 210.684 65.4017 209.776 66.5682 208.798C67.2881 208.159 66.3645 207.032 65.5631 207.439L65.6038 207.358Z" fill="#D55D1E"/>
<path d="M72.3955 220.248C71.3243 220.727 70.3049 221.314 69.3528 222C68.3205 222.679 67.261 223.359 66.2559 224.038C65.2507 224.717 66.1472 226.293 67.2067 225.654C68.2662 225.016 69.2713 224.296 70.3037 223.617C71.3184 223.017 72.2696 222.317 73.1425 221.525C73.6451 221.022 73.1425 219.949 72.3955 220.248Z" fill="#D55D1E"/>
<path d="M88.478 243.978C88.478 243.978 114.598 217.858 97.1848 215.671C79.7712 213.484 71.0644 229.458 71.0644 229.458C71.0644 229.458 89.9314 204.057 73.2377 201.15C56.544 198.243 59.4508 246.871 59.4508 246.871L88.478 243.978Z" fill="#88A72A"/>
<path d="M59.8718 241.777C59.8718 241.777 67.8587 194.603 48.2582 196.057C28.6577 197.51 34.4713 218.55 34.4713 218.55C34.4713 218.55 27.9378 190.243 15.6043 197.51C3.27082 204.777 21.4043 227.257 21.4043 227.257C21.4043 227.257 -3.26267 215.684 0.364026 225.844C3.99073 236.005 25.031 246.885 25.031 246.885L59.8718 241.777Z" fill="#5C6C2A"/>
<path d="M26.1991 253.812H82.3518C86.2281 253.812 89.9456 252.272 92.6865 249.531C95.4275 246.79 96.9673 243.073 96.9673 239.197H11.5836C11.5836 243.073 13.1235 246.79 15.8644 249.531C18.6053 252.272 22.3228 253.812 26.1991 253.812Z" fill="#E6CCC5"/>
<path d="M39.7415 242.131C39.7415 236.494 44.319 225.315 49.956 225.315C55.593 225.315 60.1705 236.48 60.1705 242.131C60.2728 243.531 60.0854 244.937 59.6198 246.262C59.1542 247.587 58.4205 248.801 57.4645 249.83C56.5085 250.858 55.3507 251.678 54.0635 252.239C52.7763 252.8 51.3873 253.09 49.9831 253.09C48.579 253.09 47.19 252.8 45.9028 252.239C44.6156 251.678 43.4578 250.858 42.5018 249.83C41.5458 248.801 40.8121 247.587 40.3465 246.262C39.8809 244.937 39.6934 243.531 39.7958 242.131H39.7415Z" fill="#F0E5E0"/>
<path d="M63.9874 242.131C63.9874 236.494 68.5649 225.315 74.202 225.315C79.839 225.315 84.4165 236.48 84.4165 242.131C84.5188 243.531 84.3313 244.937 83.8658 246.262C83.4002 247.587 82.6665 248.801 81.7105 249.83C80.7545 250.858 79.5967 251.678 78.3095 252.239C77.0223 252.8 75.6332 253.09 74.2291 253.09C72.825 253.09 71.436 252.8 70.1487 252.239C68.8615 251.678 67.7038 250.858 66.7478 249.83C65.7918 248.801 65.0581 247.587 64.5925 246.262C64.1269 244.937 63.9394 243.531 64.0418 242.131H63.9874Z" fill="#F0E5E0"/>
<path d="M88.2877 242.131C88.2877 236.494 92.8652 225.315 98.5022 225.315C104.139 225.315 108.662 236.494 108.662 242.131C108.765 243.531 108.577 244.937 108.112 246.262C107.646 247.587 106.912 248.801 105.956 249.83C105 250.858 103.843 251.678 102.555 252.239C101.268 252.8 99.8791 253.09 98.475 253.09C97.0709 253.09 95.6819 252.8 94.3947 252.239C93.1074 251.678 91.9497 250.858 90.9937 249.83C90.0377 248.801 89.304 247.587 88.8384 246.262C88.3728 244.937 88.1853 243.531 88.2877 242.131Z" fill="#F0E5E0"/>
<path d="M109.437 238.83H39.0488C38.1986 238.83 37.3832 239.168 36.782 239.769C36.1809 240.37 35.8431 241.185 35.8431 242.036C35.8431 243.136 35.8431 244.25 35.8431 245.35C35.8431 245.88 35.8431 246.409 35.8431 246.939C35.8431 248.08 37.2015 247.686 37.9349 247.686C38.3754 247.687 38.8027 247.836 39.1479 248.109C39.493 248.383 39.7357 248.765 39.8366 249.194C40.1457 250.508 40.8893 251.678 41.9469 252.517C43.0045 253.355 44.3142 253.811 45.6638 253.812H54.3298C55.6817 253.814 56.9945 253.359 58.0549 252.521C59.1153 251.682 59.861 250.51 60.1706 249.194C60.2715 248.765 60.5142 248.383 60.8593 248.109C61.2044 247.836 61.6318 247.687 62.0722 247.686H62.1945C62.6349 247.687 63.0623 247.836 63.4074 248.109C63.7525 248.383 63.9952 248.765 64.0961 249.194C64.4057 250.51 65.1513 251.682 66.2117 252.521C67.2721 253.359 68.585 253.814 69.9368 253.812H78.6029C79.9547 253.814 81.2676 253.359 82.328 252.521C83.3884 251.682 84.134 250.51 84.4436 249.194C84.5446 248.765 84.7872 248.383 85.1324 248.109C85.4775 247.836 85.9049 247.687 86.3453 247.686H86.4675C86.908 247.687 87.3353 247.836 87.6805 248.109C88.0256 248.383 88.2682 248.765 88.3692 249.194C88.6782 250.508 89.4219 251.678 90.4795 252.517C91.5371 253.355 92.8468 253.811 94.1963 253.812H102.862C104.212 253.811 105.522 253.355 106.579 252.517C107.637 251.678 108.38 250.508 108.69 249.194C108.79 248.765 109.033 248.383 109.378 248.109C109.723 247.836 110.151 247.687 110.591 247.686H112.276C112.506 247.686 112.669 247.686 112.669 247.428C112.669 246.858 112.669 245.622 112.669 245.01C112.669 244.014 112.669 243.023 112.669 242.036C112.669 241.612 112.586 241.193 112.423 240.803C112.26 240.412 112.021 240.057 111.721 239.759C111.42 239.461 111.064 239.226 110.672 239.066C110.28 238.907 109.86 238.826 109.437 238.83Z" fill="#494C8E"/>
<path d="M39.2662 245.852C62.6971 245.282 86.128 245.771 109.559 245.2C109.687 245.18 109.803 245.115 109.887 245.016C109.971 244.918 110.017 244.793 110.017 244.664C110.017 244.535 109.971 244.41 109.887 244.311C109.803 244.213 109.687 244.148 109.559 244.127C86.128 244.698 62.6971 244.209 39.2662 244.779C39.1385 244.8 39.0223 244.865 38.9384 244.963C38.8546 245.062 38.8085 245.187 38.8085 245.316C38.8085 245.445 38.8546 245.57 38.9384 245.668C39.0223 245.767 39.1385 245.832 39.2662 245.852Z" fill="white"/>
</svg>
