<svg width="870" height="767" viewBox="0 0 870 767" fill="none" xmlns="http://www.w3.org/2000/svg">
<g opacity="0.504511">
<path opacity="0.504511" fill-rule="evenodd" clip-rule="evenodd" d="M787.547 192.525C857.428 271.806 666.038 489.922 439.937 590.271C213.836 690.619 15.4128 601.799 53.0167 453.822C90.62 305.845 717.667 113.246 787.547 192.525Z" fill="#ABE2D9"/>
</g>
<g opacity="0.5">
<path opacity="0.5" d="M588.399 593.492C583.211 597.336 576.528 601.384 576.501 608.297C576.629 610.649 577.205 612.954 578.199 615.089C584.311 630.465 591.863 645.298 595.68 661.571C596.709 665.948 597.394 670.398 597.731 674.882H262.58C254.227 666.732 246.946 655.648 249.894 644.143C253.792 628.971 273.121 623.456 276.286 608.08C279.396 592.962 264.822 579.814 264.428 564.315C264.17 554.345 270.106 545.109 277.766 539.865C285.427 534.622 294.582 532.87 303.574 532.123C315.76 531.13 328.024 531.862 340.004 534.296C353.588 537.013 367.171 541.971 380.835 540.151C386.38 539.57 391.639 537.4 395.981 533.902C401.699 529.04 404.986 521.46 407.309 513.894C413.72 493.072 414.535 469.804 425.144 451.208C438.863 427.153 466.844 416.463 492.367 419.478C517.889 422.493 541.171 437.136 561.518 454.455C581.404 471.393 599.891 492.297 607.592 518.771C615.294 545.244 609.25 578.061 588.399 593.492Z" fill="#FCFAF1"/>
</g>
<path d="M604.197 540.68C594.688 548.11 582.219 553.788 570.605 557.958C567.264 545.326 564.33 532.612 562.157 519.762C572.275 517.803 581.902 513.851 590.478 508.135C604.672 498.464 623.553 462.754 628.28 453.531L628.999 452.078C628.999 452.078 632.667 442.379 633.156 440.912C634.283 436.711 635.19 432.454 635.872 428.158C635.872 428.158 638.589 427.275 639.01 433.414C639.431 439.554 640.518 437.734 640.518 437.734C640.518 437.734 651.629 420.959 654.821 421.665C656.016 421.937 654.821 425.74 652.906 427.967C651.474 429.742 650.184 431.627 649.048 433.604C649.048 433.604 659.915 421.583 662.835 423.01C662.835 423.01 664.288 423.933 660.798 427.506C657.909 430.478 655.24 433.656 652.811 437.014C652.811 437.014 663.827 427.424 665.253 428.198C667.63 429.475 656.465 439.241 654.807 442.624C654.807 442.624 663.052 434.841 663.528 437.027C664.003 439.214 654.549 447.323 650.271 458.312C649.958 459.385 649.551 460.621 649.075 462.007C649.075 462.007 637.801 514.438 604.197 540.68Z" fill="#FEBF9F"/>
<path d="M639.934 438.562C641.297 439.637 642.516 440.884 643.561 442.27C644.097 442.97 644.578 443.71 645 444.485C645.485 445.319 645.794 446.243 645.91 447.201L644.552 446.685C645.182 446.133 645.916 445.712 646.712 445.449C647.483 445.179 648.302 445.072 649.116 445.136C649.913 445.19 650.689 445.407 651.398 445.775C652.078 446.121 652.693 446.58 653.218 447.133C652.55 446.856 651.859 446.638 651.154 446.481C650.489 446.337 649.807 446.295 649.13 446.359C648.483 446.422 647.85 446.587 647.255 446.848C646.663 447.108 646.113 447.456 645.625 447.88L644.484 448.926L644.267 447.323C644.137 446.584 643.894 445.87 643.547 445.204C643.207 444.471 642.827 443.737 642.406 443.018C641.632 441.551 640.762 440.097 639.934 438.562Z" fill="black"/>
<path d="M507.851 496.182C515.316 496.182 521.367 489.425 521.367 481.091C521.367 472.757 515.316 466 507.851 466C500.387 466 494.336 472.757 494.336 481.091C494.336 489.425 500.387 496.182 507.851 496.182Z" fill="black"/>
<path d="M497.746 487C497.746 487 517.156 471.04 504.809 436.022C496.768 413.23 449.43 478.076 497.746 487Z" fill="black"/>
<path d="M449.362 447.554C451.522 433.876 465.159 410.988 489.419 425.074C497.039 429.502 500.285 437.584 501.834 445.979C502.907 451.833 500.842 509.358 500.842 509.358C498.791 532.449 464.168 537.882 462.986 509.806L464.344 490.586C446.809 484.962 446.931 462.93 449.362 447.554Z" fill="#FEBF9F"/>
<path d="M464.358 490.586C464.358 490.586 474.274 493.9 492.964 482.286C485.499 492.304 475.219 499.87 463.434 504.019L464.358 490.586Z" fill="#B06D6A"/>
<path d="M485.982 476.568C491.556 476.568 496.075 472.049 496.075 466.476C496.075 460.902 491.556 456.383 485.982 456.383C480.409 456.383 475.89 460.902 475.89 466.476C475.89 472.049 480.409 476.568 485.982 476.568Z" fill="#FCB091"/>
<path d="M459.713 459.535C459.713 456.858 458.649 454.291 456.757 452.398C454.864 450.506 452.297 449.442 449.62 449.442H449.077C448.033 456.119 447.932 462.909 448.778 469.613H449.62C452.295 469.613 454.86 468.552 456.752 466.662C458.644 464.772 459.709 462.209 459.713 459.535V459.535Z" fill="#FCB091"/>
<path d="M507.413 463.377C511.408 462.407 513.86 458.382 512.89 454.387C511.92 450.392 507.895 447.94 503.9 448.91C499.905 449.881 497.453 453.905 498.423 457.9C499.394 461.895 503.418 464.347 507.413 463.377Z" fill="#FEBF9F"/>
<path d="M502.214 458.244C502.298 457.472 502.594 456.739 503.07 456.125C503.561 455.467 504.23 454.962 504.999 454.672C505.415 454.52 505.859 454.457 506.301 454.487C506.743 454.518 507.174 454.641 507.566 454.848C508.285 455.223 508.837 455.853 509.115 456.614C508.455 456.357 507.773 456.162 507.077 456.03C506.543 455.94 505.995 455.992 505.488 456.18C504.323 456.743 503.225 457.435 502.214 458.244V458.244Z" fill="black"/>
<path d="M463.217 465.987C464.154 466.394 464.915 466.869 465.703 467.182C466.379 467.505 467.114 467.686 467.863 467.712C468.596 467.686 469.314 467.501 469.968 467.168C470.701 466.815 471.449 466.326 472.318 465.81C472.172 466.839 471.696 467.793 470.96 468.527C470.156 469.342 469.062 469.806 467.917 469.817C466.792 469.799 465.715 469.358 464.901 468.581C464.101 467.898 463.515 466.996 463.217 465.987V465.987Z" fill="black"/>
<path d="M465.784 444.226C465.967 445.105 465.93 446.015 465.676 446.875C465.44 447.732 465.093 448.554 464.643 449.32C463.766 450.856 462.636 452.234 461.302 453.395L461.18 452.336C462.648 453.333 464.046 454.432 465.363 455.623C463.691 455.03 462.061 454.322 460.487 453.504L459.781 453.151L460.365 452.444C460.881 451.833 461.383 451.167 461.9 450.529C462.416 449.891 462.905 449.239 463.38 448.573C464.395 447.253 465.206 445.788 465.784 444.226V444.226Z" fill="black"/>
<path d="M473.948 446.522C473.892 447.811 473.955 449.102 474.138 450.38C474.328 451.602 474.817 452.702 475.496 452.865C476.175 453.028 477.126 452.526 477.982 451.643C478.865 450.715 479.669 449.716 480.386 448.655V448.655C480.482 448.536 480.616 448.455 480.766 448.425C480.915 448.395 481.07 448.418 481.204 448.491C481.338 448.563 481.443 448.681 481.499 448.822C481.556 448.964 481.561 449.121 481.514 449.266C481.008 450.615 480.278 451.868 479.354 452.974C478.853 453.58 478.251 454.095 477.574 454.495C477.168 454.734 476.717 454.885 476.249 454.938C475.781 454.992 475.307 454.948 474.858 454.808C474.416 454.64 474.014 454.383 473.675 454.054C473.336 453.724 473.069 453.329 472.888 452.893C472.587 452.168 472.417 451.395 472.386 450.611C472.318 449.179 472.492 447.746 472.902 446.373C472.929 446.236 473.009 446.115 473.123 446.035C473.237 445.955 473.378 445.922 473.516 445.943C473.654 445.964 473.779 446.037 473.864 446.147C473.949 446.258 473.989 446.397 473.975 446.536L473.948 446.522Z" fill="black"/>
<path d="M453.301 444.131C453.23 445.348 453.23 446.568 453.301 447.785C453.342 448.334 453.447 448.877 453.614 449.402C453.777 449.891 454.008 450.108 454.13 450.108C454.252 450.108 454.551 450.108 454.931 449.741C455.351 449.381 455.729 448.976 456.059 448.532C456.765 447.609 457.417 446.549 458.096 445.517C458.183 445.388 458.313 445.294 458.462 445.252C458.612 445.21 458.772 445.223 458.913 445.289C459.054 445.354 459.167 445.468 459.231 445.609C459.296 445.751 459.307 445.911 459.264 446.06C458.877 447.336 458.315 448.552 457.594 449.673C457.217 450.279 456.76 450.832 456.235 451.317C455.916 451.599 455.554 451.829 455.162 451.996C454.665 452.214 454.109 452.253 453.586 452.107C453.064 451.961 452.608 451.638 452.296 451.195C452.044 450.842 451.86 450.446 451.753 450.026C451.573 449.331 451.495 448.612 451.522 447.894C451.561 446.565 451.785 445.249 452.188 443.982C452.211 443.84 452.29 443.712 452.407 443.628C452.524 443.544 452.67 443.51 452.812 443.534C452.955 443.557 453.082 443.636 453.166 443.753C453.25 443.87 453.284 444.016 453.261 444.159L453.301 444.131Z" fill="black"/>
<path d="M482.728 441.097C482.878 440.141 481.618 439.148 479.914 438.88C478.209 438.612 476.706 439.17 476.555 440.126C476.405 441.082 477.665 442.074 479.369 442.342C481.074 442.61 482.577 442.053 482.728 441.097Z" fill="black"/>
<path d="M459.034 437.503C459.373 438.413 458.327 439.622 456.697 440.219C455.067 440.817 453.492 440.491 453.152 439.581C452.812 438.671 453.858 437.462 455.488 436.864C457.118 436.267 458.708 436.593 459.034 437.503Z" fill="black"/>
<path d="M454.592 433.319C454.592 433.319 469.37 436.511 489.419 425.074C489.419 425.074 482.193 463.976 501.644 449.999C502.436 449.414 503.343 449.004 504.305 448.795C505.268 448.587 506.263 448.585 507.227 448.79L507.987 449.035C507.987 449.035 507.457 426.324 491.198 420.714C474.939 415.104 463.462 417.671 454.592 433.319Z" fill="black"/>
<path d="M355.679 545.951L363.069 522.982L380.197 528.822L379.423 548.667L355.679 545.951Z" fill="#FEBF9F"/>
<path d="M623.58 459.698C623.58 459.698 602.879 501.574 585.126 509.86C567.373 518.146 521.543 505.622 509.06 506.165L500.992 505.989C498.017 510.77 487.246 513.921 479.449 513.202C468.324 512.169 464.508 507.442 463.448 503.612L449.661 502.58C442.87 501.995 431.623 503.286 421.137 514.234C417.129 518.39 398.412 539.974 376.679 568.213L382.112 548.912L352.46 545.299C328.893 590.204 339.312 625.1 353.329 625.1C377.507 625.1 415.364 589.091 436.187 567.208L441.416 623.633L521.557 626.349L514.534 558.814C525.998 560.294 584.257 566.964 604.563 554.454C627.139 540.49 647.405 480.127 647.405 480.127L623.58 459.698Z" fill="#9DB15F"/>
<path d="M370.485 588.887C369.969 588.751 371.843 579.841 375.076 569.123C378.309 558.406 381.786 549.985 382.289 550.107C382.791 550.229 380.183 558.963 376.937 569.64C373.691 580.316 371.015 589.023 370.485 588.887Z" fill="black"/>
<path d="M376.679 504.563C378.037 503.096 382.18 498.6 382.194 496.603C382.194 493.058 376.19 499.428 373.568 502.362C374.648 503.033 375.687 503.768 376.679 504.563V504.563Z" fill="#F69B77"/>
<path d="M351.441 475.427C351.637 474.996 351.937 474.619 352.313 474.331C352.689 474.043 353.13 473.852 353.598 473.776C354.065 473.699 354.545 473.739 354.993 473.892C355.441 474.045 355.845 474.306 356.168 474.653C362.634 481.539 377.154 498.871 384.448 510.607C394.785 527.247 401.645 538.167 401.645 538.167L431.922 564.315C431.922 564.315 419.126 571.324 407.757 561.164C399.159 553.476 395.166 539.865 395.166 539.865C395.166 539.865 368.814 492.542 352.229 478.823C351.746 478.42 351.409 477.868 351.271 477.254C351.133 476.64 351.203 475.998 351.469 475.427H351.441Z" fill="#5F462E"/>
<path d="M363.422 534.962C361.561 527.505 361.425 515.402 361.344 510.893C361.308 509.491 361.686 508.11 362.43 506.922C363.174 505.734 364.251 504.79 365.527 504.21C372.427 500.23 386.432 497.418 386.961 499.32C387.396 500.923 375.293 504.848 375.293 504.848C375.293 504.848 390.344 502.376 387.382 505.799C385.807 507.633 377.345 508.339 377.345 508.339C377.345 508.339 386.527 509.317 385.834 510.662C384.584 513.052 377.032 512.726 377.032 512.726C377.032 512.726 380.645 515.796 381.705 523.498C382.479 529.121 370.947 540.246 370.947 540.246L363.422 534.962Z" fill="#FEBF9F"/>
<path d="M369.792 514.329C369.697 513.99 371.341 513.297 373.46 513.134C374.506 513.039 375.456 513.134 376.027 513.025C376.597 512.916 376.842 512.781 377.032 512.849C377.222 512.916 377.141 513.025 377.032 513.256C376.863 513.556 376.594 513.787 376.271 513.908C375.397 514.217 374.481 514.391 373.555 514.424C371.544 514.587 369.887 514.696 369.792 514.329Z" fill="black"/>
<path d="M578.226 529.678C577.655 529.678 577.302 525.413 575.115 520.781C572.928 516.149 569.954 513.079 570.347 512.631C570.51 512.441 571.516 512.957 572.833 514.193C576.236 517.528 578.303 521.992 578.647 526.744C578.728 528.564 578.484 529.678 578.226 529.678Z" fill="black"/>
<path d="M587.734 520.645C587.326 521.026 584.583 518.621 580.779 516.407C576.976 514.193 573.553 512.93 573.689 512.332C573.825 511.735 577.682 512.251 581.757 514.669C585.832 517.086 588.141 520.319 587.734 520.645Z" fill="black"/>
<path d="M524.151 628.047C524.287 627.925 525.306 628.889 527.262 630.492C530.013 632.759 533.016 634.701 536.213 636.279C538.196 637.454 540.515 637.932 542.801 637.637C543.92 637.373 544.893 636.687 545.517 635.722C545.821 635.298 545.983 634.789 545.983 634.268C545.983 633.747 545.821 633.239 545.517 632.815C544.638 631.84 543.465 631.177 542.176 630.927C540.624 630.567 539.049 630.317 537.463 630.18C534.041 629.829 530.594 629.801 527.167 630.098V627.382C529.72 627.531 532.41 627.572 535.153 627.49C537.177 627.49 539.228 627.3 541.144 627.11C543.053 626.949 544.952 626.69 546.835 626.336C548.489 626.057 550.042 625.355 551.345 624.298C551.873 623.818 552.287 623.227 552.557 622.566C552.827 621.906 552.947 621.194 552.907 620.481C552.889 619.861 552.66 619.265 552.258 618.793C551.855 618.321 551.302 618.002 550.693 617.887C549.969 617.696 549.226 617.586 548.479 617.561C547.691 617.561 546.93 617.466 546.156 617.561C543.315 617.6 540.496 618.058 537.789 618.919C533.817 620.157 530.125 622.159 526.922 624.814C524.64 626.716 523.54 627.979 523.363 627.843C523.187 627.708 524.042 626.241 526.175 624.013C529.263 620.895 533.015 618.513 537.15 617.045C540.015 615.991 543.025 615.386 546.074 615.252C546.903 615.252 547.745 615.252 548.587 615.252C549.503 615.262 550.414 615.376 551.304 615.591C552.381 615.839 553.359 616.402 554.116 617.208C554.892 618.077 555.368 619.172 555.474 620.332C555.572 621.448 555.414 622.571 555.011 623.616C554.609 624.662 553.972 625.601 553.151 626.363C551.517 627.755 549.544 628.692 547.433 629.079C545.444 629.478 543.435 629.768 541.415 629.949C539.391 630.153 537.34 630.288 535.235 630.356C532.41 630.438 529.639 630.356 527.004 630.22V627.504C530.624 627.212 534.264 627.28 537.87 627.708C539.598 627.886 541.31 628.195 542.991 628.631C544.835 629.062 546.477 630.106 547.65 631.592C548.231 632.434 548.535 633.436 548.519 634.458C548.487 635.431 548.176 636.374 547.623 637.175C546.653 638.609 545.162 639.609 543.466 639.96C541.992 640.221 540.475 640.114 539.052 639.647C537.833 639.26 536.659 638.745 535.547 638.112C532.305 636.329 529.344 634.077 526.759 631.429C524.735 629.351 524.029 628.156 524.151 628.047Z" fill="black"/>
<path d="M441.362 619.87L435.277 670.821H554.55L521.502 622.6L441.362 619.87Z" fill="#EF6B32"/>
<path d="M441.362 619.87L521.733 622.356L524.925 628.265L493.182 628.754L508.938 670.848L435.277 670.821L441.362 619.87Z" fill="#FCFAF1"/>
<path d="M604.645 670.943H257.025V679.568H604.645V670.943Z" fill="#EFBA32"/>
<path d="M506.398 662.154H363.951V671.201H506.398V662.154Z" fill="black"/>
<path d="M443.236 486.28C443.236 486.28 443.073 486.728 442.612 487.461L441.742 488.82C441.416 489.363 441.077 490.015 440.683 490.721C437.971 495.752 436.387 501.313 436.04 507.017C435.693 512.722 436.591 518.433 438.672 523.756C440.163 527.464 442.261 530.897 444.88 533.916C447.597 537.081 450.884 540.314 452.921 544.592C454.978 548.715 455.843 553.33 455.42 557.917C455.195 560.148 454.466 562.299 453.288 564.206C452.094 566.011 450.457 567.48 448.534 568.471C446.741 569.449 444.934 570.129 443.264 570.876C438.728 572.829 434.586 575.591 431.039 579.026C429.147 580.745 427.741 582.933 426.964 585.369C426.712 586.275 426.643 587.222 426.762 588.155C426.881 589.088 427.185 589.988 427.656 590.802C428.241 591.868 429.15 592.719 430.251 593.233C431.025 593.559 431.487 593.6 431.473 593.695C431.46 593.79 430.998 593.845 430.115 593.614C428.827 593.205 427.725 592.353 427.005 591.21C426.406 590.32 425.999 589.317 425.807 588.263C425.615 587.209 425.644 586.126 425.891 585.084C426.625 582.397 428.076 579.96 430.088 578.034C432.372 575.663 434.935 573.579 437.722 571.826C439.274 570.85 440.889 569.979 442.557 569.218C444.269 568.431 446.021 567.738 447.651 566.814C449.304 565.953 450.707 564.68 451.726 563.12C452.734 561.445 453.351 559.565 453.532 557.618C453.883 553.405 453.07 549.177 451.183 545.394C449.322 541.468 446.211 538.385 443.44 535.098C440.706 531.905 438.534 528.272 437.015 524.353C434.483 517.735 433.765 510.56 434.937 503.571C435.731 498.885 437.433 494.4 439.949 490.368C440.411 489.676 440.805 489.01 441.185 488.521L442.231 487.271C442.802 486.565 443.128 486.239 443.236 486.28Z" fill="black"/>
<path d="M377.426 614.559C377.63 614.342 379.056 617.561 381.121 623.049L381.582 624.271L380.224 624.054C375.367 623.171 370.63 621.722 366.111 619.734C364.385 619.144 362.907 617.991 361.914 616.461C361.419 615.608 361.241 614.607 361.411 613.636C361.602 612.68 362.157 611.837 362.96 611.286C363.684 610.804 364.535 610.548 365.405 610.552H366.003H366.492L367.456 610.634C368.688 610.746 369.899 611.024 371.056 611.462C372.682 612.086 374.274 612.798 375.823 613.595C376.978 614.165 377.535 614.546 377.426 614.627C376.786 614.639 376.15 614.528 375.552 614.301L370.675 612.943C369.606 612.631 368.501 612.453 367.388 612.413H366.424H365.514C364.988 612.431 364.478 612.6 364.047 612.902C363.647 613.219 363.382 613.674 363.304 614.178C363.226 614.682 363.341 615.196 363.626 615.619C364.438 616.758 365.595 617.606 366.926 618.036C371.315 619.955 375.859 621.495 380.509 622.641L379.64 623.646C378.037 618.349 377.222 614.79 377.426 614.559Z" fill="black"/>
<path d="M471.123 614.559C471.326 614.777 470.457 618.349 468.895 623.551L468.026 622.546C472.676 621.405 477.22 619.869 481.609 617.955C481.966 617.81 482.315 617.647 482.655 617.466C482.978 617.313 483.288 617.132 483.578 616.923C484.127 616.577 484.591 616.113 484.937 615.564C485.221 615.144 485.339 614.632 485.266 614.13C485.193 613.627 484.935 613.17 484.543 612.848C483.559 612.295 482.397 612.154 481.31 612.454C480.101 612.617 478.974 612.875 477.928 613.106C473.853 614.111 471.231 614.912 471.136 614.641C471.041 614.369 473.418 613.147 477.561 611.775C478.701 611.4 479.862 611.091 481.038 610.851C481.734 610.698 482.445 610.62 483.157 610.62C484.025 610.631 484.87 610.895 485.589 611.381C486.384 611.94 486.93 612.788 487.11 613.744C487.273 614.719 487.085 615.72 486.58 616.57C485.585 618.095 484.107 619.242 482.383 619.829C477.873 621.815 473.145 623.265 468.297 624.149L466.939 624.366L467.401 623.144C469.493 617.575 470.905 614.342 471.123 614.559Z" fill="black"/>
<path d="M377.711 605.662H472.345V645.664C472.345 650.07 470.595 654.296 467.479 657.411C464.364 660.526 460.139 662.277 455.733 662.277H394.337C389.931 662.277 385.706 660.526 382.59 657.411C379.475 654.296 377.725 650.07 377.725 645.664V605.662H377.711Z" fill="#EFBA32"/>
<path d="M472.766 604.847H376.964V606.83H472.766V604.847Z" fill="#D7F5F6"/>
<path d="M333.62 582.829H294.447V658.596H333.62V582.829Z" fill="#ABE2D9"/>
<path opacity="0.6" d="M330.985 606.803H297.082V656.694H330.985V606.803Z" fill="#C4F6EC"/>
<path opacity="0.6" d="M299.119 632.19L328.622 593.628" stroke="#C4F6EC" stroke-width="1.76581" stroke-miterlimit="10" stroke-linecap="round"/>
<path opacity="0.6" d="M299.228 624.135L325.036 589.498" stroke="#C4F6EC" stroke-width="1.76581" stroke-miterlimit="10" stroke-linecap="round"/>
<path d="M291.906 601.03C288.916 594.94 286.532 588.571 284.789 582.014C283.634 576.947 278.364 554.44 276.49 557.184C274.615 559.928 278.513 572.818 280.347 578.686C281.828 583.413 286.813 597.539 286.813 597.539C286.813 597.539 272.279 569.015 267.864 568.404C263.45 567.792 270.92 578.713 272.415 580.941C277.413 588.357 280.741 593.166 285.142 598.816C285.142 598.816 254.322 568.838 251.103 573.28C247.883 577.722 262.825 583.956 269.793 589.104C275.131 593.057 286.677 602.687 286.677 602.687C286.677 602.687 285.033 599.971 279.057 596.004C270.078 590.123 254.43 582.992 253.507 586.021C252.257 590.096 261.005 591.522 268.448 594.402C285.115 600.813 287.044 606.627 287.044 606.627L291.906 601.03Z" fill="#185442"/>
<path d="M298.155 601.37C298.155 601.37 293.903 595.353 286.867 600.324C279.831 605.295 284.3 614.192 286.46 616.624C288.619 619.055 308.274 639.389 310.909 644.347C313.544 649.305 322.346 662.63 325.226 661.584C328.106 660.538 325.905 657.102 324.737 648.476C323.439 639.567 319.86 631.144 314.346 624.027C309.144 617.588 298.155 601.37 298.155 601.37Z" fill="#EF6B32"/>
<path d="M300.966 606.423C297.15 607.509 294.637 611 290.616 611.611C289.394 611.788 289.91 613.649 291.132 613.472C295.126 612.875 298.141 609.764 301.618 607.944C301.8 607.847 301.939 607.685 302.008 607.491C302.077 607.296 302.071 607.083 301.992 606.893C301.912 606.703 301.764 606.549 301.577 606.462C301.39 606.375 301.177 606.361 300.98 606.423H300.966Z" fill="#D55D1E"/>
<path d="M307.269 615.062C305.771 615.558 304.364 616.292 303.099 617.235L298.793 619.952C297.734 620.604 298.712 622.288 299.771 621.622L304.063 618.906C305.47 618.185 306.754 617.245 307.867 616.121C307.966 616.024 308.03 615.896 308.048 615.758C308.066 615.62 308.038 615.48 307.968 615.36C307.898 615.24 307.79 615.147 307.661 615.095C307.532 615.044 307.389 615.037 307.255 615.075L307.269 615.062Z" fill="#D55D1E"/>
<path d="M314.604 625.358C313.246 626.159 311.887 627.123 310.529 628.074C309.229 628.901 307.981 629.809 306.794 630.791C305.992 631.497 307.024 632.747 307.907 632.231C309.266 631.429 310.624 630.383 311.901 629.514C313.177 628.683 314.402 627.776 315.568 626.797C316.288 626.159 315.365 625.032 314.563 625.439L314.604 625.358Z" fill="#D55D1E"/>
<path d="M321.395 638.248C320.324 638.727 319.305 639.314 318.353 640C317.321 640.679 316.261 641.359 315.256 642.038C314.251 642.717 315.147 644.293 316.207 643.654C317.266 643.016 318.271 642.296 319.304 641.617C320.318 641.017 321.27 640.317 322.143 639.525C322.645 639.022 322.143 637.949 321.395 638.248Z" fill="#D55D1E"/>
<path d="M337.478 661.978C337.478 661.978 363.598 635.857 346.185 633.671C328.771 631.484 320.064 647.457 320.064 647.457C320.064 647.457 338.931 622.057 322.238 619.15C305.544 616.243 308.451 664.871 308.451 664.871L337.478 661.978Z" fill="#88A72A"/>
<path d="M308.872 659.777C308.872 659.777 316.859 612.603 297.258 614.057C277.658 615.51 283.471 636.55 283.471 636.55C283.471 636.55 276.938 608.243 264.604 615.51C252.271 622.777 270.404 645.257 270.404 645.257C270.404 645.257 245.737 633.684 249.364 643.844C252.991 654.005 274.031 664.885 274.031 664.885L308.872 659.777Z" fill="#5C6C2A"/>
<path d="M275.199 671.812H331.352C335.228 671.812 338.946 670.272 341.687 667.531C344.427 664.79 345.967 661.073 345.967 657.197H260.584C260.584 661.073 262.123 664.79 264.864 667.531C267.605 670.272 271.323 671.812 275.199 671.812V671.812Z" fill="#E6CCC5"/>
<path d="M288.742 660.13C288.742 654.493 293.319 643.315 298.956 643.315C304.593 643.315 309.171 654.48 309.171 660.13C309.273 661.531 309.085 662.937 308.62 664.262C308.154 665.587 307.421 666.801 306.465 667.83C305.509 668.858 304.351 669.678 303.064 670.239C301.776 670.8 300.387 671.09 298.983 671.09C297.579 671.09 296.19 670.8 294.903 670.239C293.616 669.678 292.458 668.858 291.502 667.83C290.546 666.801 289.812 665.587 289.347 664.262C288.881 662.937 288.694 661.531 288.796 660.13H288.742Z" fill="#F0E5E0"/>
<path d="M312.987 660.13C312.987 654.493 317.565 643.315 323.202 643.315C328.839 643.315 333.416 654.48 333.416 660.13C333.519 661.531 333.331 662.937 332.866 664.262C332.4 665.587 331.666 666.801 330.71 667.83C329.754 668.858 328.597 669.678 327.309 670.239C326.022 670.8 324.633 671.09 323.229 671.09C321.825 671.09 320.436 670.8 319.149 670.239C317.861 669.678 316.704 668.858 315.748 667.83C314.792 666.801 314.058 665.587 313.592 664.262C313.127 662.937 312.939 661.531 313.042 660.13H312.987Z" fill="#F0E5E0"/>
<path d="M337.288 660.13C337.288 654.493 341.865 643.315 347.502 643.315C353.139 643.315 357.662 654.493 357.662 660.13C357.765 661.531 357.577 662.937 357.112 664.262C356.646 665.587 355.912 666.801 354.956 667.83C354 668.858 352.843 669.678 351.555 670.239C350.268 670.8 348.879 671.09 347.475 671.09C346.071 671.09 344.682 670.8 343.395 670.239C342.107 669.678 340.95 668.858 339.994 667.83C339.038 666.801 338.304 665.587 337.838 664.262C337.373 662.937 337.185 661.531 337.288 660.13V660.13Z" fill="#F0E5E0"/>
<path d="M358.437 656.83H288.049C287.199 656.83 286.383 657.168 285.782 657.769C285.181 658.37 284.843 659.185 284.843 660.036C284.843 661.136 284.843 662.25 284.843 663.35C284.843 663.88 284.843 664.409 284.843 664.939C284.843 666.08 286.201 665.686 286.935 665.686C287.375 665.687 287.803 665.836 288.148 666.109C288.493 666.383 288.736 666.765 288.837 667.194C289.146 668.508 289.889 669.678 290.947 670.517C292.005 671.355 293.314 671.811 294.664 671.812H303.33C304.682 671.814 305.995 671.359 307.055 670.521C308.115 669.682 308.861 668.51 309.171 667.194C309.271 666.765 309.514 666.383 309.859 666.109C310.204 665.836 310.632 665.687 311.072 665.686H311.194C311.635 665.687 312.062 665.836 312.407 666.109C312.752 666.383 312.995 666.765 313.096 667.194C313.406 668.51 314.151 669.682 315.212 670.521C316.272 671.359 317.585 671.814 318.937 671.812H327.603C328.955 671.814 330.268 671.359 331.328 670.521C332.388 669.682 333.134 668.51 333.444 667.194C333.545 666.765 333.787 666.383 334.132 666.109C334.477 665.836 334.905 665.687 335.345 665.686H335.468C335.908 665.687 336.335 665.836 336.68 666.109C337.026 666.383 337.268 666.765 337.369 667.194C337.678 668.508 338.422 669.678 339.479 670.517C340.537 671.355 341.847 671.811 343.196 671.812H351.862C353.212 671.811 354.522 671.355 355.579 670.517C356.637 669.678 357.38 668.508 357.69 667.194C357.79 666.765 358.033 666.383 358.378 666.109C358.723 665.836 359.151 665.687 359.591 665.686H361.276C361.506 665.686 361.669 665.686 361.669 665.428C361.669 664.858 361.669 663.622 361.669 663.01C361.669 662.014 361.669 661.023 361.669 660.036C361.669 659.612 361.586 659.193 361.423 658.803C361.26 658.412 361.021 658.057 360.721 657.759C360.42 657.461 360.064 657.226 359.672 657.066C359.28 656.907 358.86 656.826 358.437 656.83V656.83Z" fill="#494C8E"/>
<path d="M288.266 663.852C311.697 663.282 335.128 663.771 358.559 663.2C358.687 663.18 358.803 663.115 358.887 663.016C358.971 662.918 359.017 662.793 359.017 662.664C359.017 662.534 358.971 662.409 358.887 662.311C358.803 662.213 358.687 662.148 358.559 662.127C335.128 662.698 311.697 662.209 288.266 662.779C288.139 662.8 288.022 662.865 287.938 662.963C287.855 663.061 287.808 663.186 287.808 663.316C287.808 663.445 287.855 663.57 287.938 663.668C288.022 663.767 288.139 663.832 288.266 663.852V663.852Z" fill="white"/>
</svg>
