<svg width="400" height="400" viewBox="0 0 400 400" fill="none" xmlns="http://www.w3.org/2000/svg">
<circle cx="200" cy="200" r="200" fill="#FCF2EA"/>
<path d="M302 198.018C302 250.475 253.647 293 194 293C134.353 293 86 250.475 86 198.018C86 145.561 134.353 150.099 194 150.099C253.647 150.099 302 148.387 302 198.018Z" fill="#FDC093"/>
<path d="M300.058 182.658C300.058 206.595 248.747 226 192.296 226C135.845 226 88.0582 206.595 88.0582 182.658C91.0937 155.311 135.845 141 192.296 141C248.747 141 292.357 154.886 300.058 182.658Z" fill="#EB936F"/>
<path d="M297.969 183.69C299.487 214.632 244.269 232 192.03 232C132.665 232 90 206.218 90 183.69C90 161.162 139.79 152.003 192.03 152.003C244.269 152.003 291.391 151.06 297.969 183.69Z" fill="#FFE8AD"/>
<path fill-rule="evenodd" clip-rule="evenodd" d="M159.272 245.094L159.228 245.101C159.235 245.1 159.242 245.099 159.25 245.097C159.257 245.096 159.264 245.095 159.272 245.094ZM175.721 192.58L128.24 199.625C128.639 182.733 136.394 169.206 147.74 167.522C159.086 165.839 170.435 176.532 175.721 192.58Z" fill="#9DB15F"/>
<path fill-rule="evenodd" clip-rule="evenodd" d="M204.088 232.767L204.035 232.756C204.044 232.758 204.053 232.76 204.062 232.761C204.07 232.763 204.079 232.765 204.088 232.767ZM219.028 215.768L196.791 211.316C199.415 205.122 204.84 201.267 210.154 202.331C215.468 203.395 218.991 209.041 219.028 215.768Z" fill="#F7CC5E"/>
<path fill-rule="evenodd" clip-rule="evenodd" d="M202.616 172.54L224.732 167.517C221.9 161.181 216.343 157.311 211.058 158.512C205.773 159.712 202.432 165.603 202.616 172.54Z" fill="#CB996D"/>
<path fill-rule="evenodd" clip-rule="evenodd" d="M287.622 119.063C283.273 116.84 277.494 118.294 274.714 122.309L228 189.784L243.349 198.411L290.463 130.359C293.243 126.343 291.971 121.286 287.622 119.063Z" fill="#8E725A"/>
</svg>
